<svg width="198" height="40" viewBox="0 0 198 40" fill="none" xmlns="http://www.w3.org/2000/svg">
<g clip-path="url(#clip0_6736_15847)">
<path d="M131.968 0.0371325C130.621 0.249334 128.95 0.859414 127.592 1.63925C124.213 3.5809 122.102 6.49867 121.498 10.053C121.201 11.809 121.291 13.9629 121.726 15.6286C122.834 19.8355 126.064 22.6737 131.146 23.9098L131.729 24.053L135.309 24.0796L138.89 24.1114L139.351 24.2759C140.094 24.5411 140.582 24.8488 141.117 25.3846C141.664 25.9257 141.955 26.4138 142.162 27.1406C142.263 27.496 142.284 27.6817 142.284 28.382C142.284 29.0875 142.268 29.2573 142.167 29.5756C141.754 30.8806 140.539 31.8727 138.815 32.313C138.439 32.4085 138.105 32.4138 129.889 32.4138H121.36V36.2069V40H129.332C134.174 40 137.548 39.9788 137.935 39.9469C140.444 39.7347 143.053 39.0981 145.095 38.1963C147.031 37.3422 148.723 36.122 149.158 35.2679L149.264 35.0663L150.017 35.8249C150.877 36.6897 151.391 37.1141 152.335 37.7454C155.788 40.0477 159.978 40.6048 163.861 39.2785C165.012 38.8806 166.311 38.2175 167.256 37.5385C167.484 37.374 167.691 37.2414 167.717 37.2414C167.744 37.2414 167.977 37.3687 168.232 37.5225C170.268 38.7533 172.443 39.5544 174.612 39.8727C175.143 39.9523 175.875 39.9682 180.075 39.9841C183.274 40 185.199 39.9894 185.719 39.9523C189.84 39.6499 193.33 38.0902 195.394 35.6233C196.698 34.069 197.441 32.2599 197.749 29.9204C197.78 29.6446 197.812 28.8806 197.812 28.2228C197.802 23.1088 195.929 19.4164 192.381 17.5119C191.5 17.0398 190.068 16.5676 189.013 16.3926C188.811 16.3607 188.583 16.3183 188.509 16.3024C188.435 16.2865 186.695 16.2546 184.637 16.2334C181.391 16.2016 180.86 16.1857 180.606 16.1114C179.184 15.687 178.373 14.6419 178.166 12.9761C177.874 10.6737 178.993 8.91246 181.253 8.13793L181.852 7.93103L189.93 7.91512L198.003 7.90451V3.95225V-2.82191e-06H188.97C178.956 -2.82191e-06 179.566 -0.021223 178.341 0.35013C176.522 0.901854 174.602 1.94164 173.207 3.14058C171.027 5.00796 169.727 7.27851 169.255 10.053C169.144 10.6897 169.032 12.2812 169.08 12.4721C169.123 12.6207 169.032 12.5942 168.852 12.4085C168.598 12.1379 167.818 11.496 167.261 11.1034C164.01 8.79045 159.936 8.06896 156.128 9.13528C154.452 9.60212 152.707 10.504 151.274 11.6499C150.649 12.1538 149.519 13.2891 148.994 13.9523C147.705 15.5756 146.734 17.4536 146.151 19.443L145.981 20.0212L145.583 19.2202C145.207 18.4721 145.159 18.4085 144.846 18.1591C143.79 17.3156 142.475 16.7109 141.011 16.3873C140.502 16.2759 140.338 16.2653 136.821 16.2334C133.548 16.2016 133.129 16.191 132.843 16.1061C132.291 15.9416 131.814 15.6605 131.411 15.2573C130.758 14.5995 130.446 13.7825 130.392 12.5889C130.355 11.8249 130.424 11.2997 130.647 10.695C131.045 9.60212 132.01 8.68965 133.273 8.22281C134.174 7.88329 133.548 7.90451 143.207 7.90451H152.017V3.95225V-2.82191e-06L142.061 0.00530222C136.582 0.0106073 132.042 0.0265224 131.968 0.0371325ZM159.947 16.2599C162.355 16.679 164.322 19.3475 164.773 22.7958C164.874 23.5703 164.874 25.0239 164.773 25.7984C164.503 27.8674 163.665 29.7294 162.466 30.939C159.554 33.8621 155.592 32.2281 154.133 27.496C153.836 26.5464 153.698 25.5066 153.698 24.2971C153.698 23.2997 153.746 22.8064 153.927 21.9204C154.425 19.5013 155.778 17.4748 157.454 16.6472C157.905 16.4191 158.122 16.3501 158.615 16.2599C159.124 16.1645 159.4 16.1645 159.947 16.2599ZM174.146 21.9682C175.509 22.8541 177.62 23.6764 179.296 23.9788C179.842 24.0796 180.118 24.0849 183.157 24.0849H186.43L186.896 24.2228C187.777 24.4775 188.578 24.9814 189.135 25.6393C190.015 26.6737 190.323 28.3979 189.867 29.7188C189.442 30.9284 188.217 31.8939 186.584 32.3024C186.133 32.4191 186.111 32.4191 180.357 32.3979C174.087 32.382 174.395 32.3926 173.472 32.0849C173.048 31.9469 172.279 31.5756 172.279 31.5119C172.279 31.4801 172.385 31.2149 172.512 30.9125C173.058 29.618 173.467 28.1167 173.695 26.5199C173.811 25.6764 173.822 22.9655 173.7 22.1591C173.663 21.878 173.631 21.6446 173.642 21.6446C173.647 21.6446 173.875 21.7878 174.146 21.9682Z" fill="#EE1D25"/>
<path d="M10.8242 13.5281V19.7881H11.9381H13.0519V13.5281V7.26819H11.9381H10.8242V13.5281Z" fill="#034EA2"/>
<path d="M29.8125 13.5281V19.7881H30.9263H32.0402V13.5281V7.26819H30.9263H29.8125V13.5281Z" fill="#034EA2"/>
<path d="M47.3231 13.1727L47.339 19.0825L47.4875 19.2947C47.5671 19.4114 47.7527 19.5706 47.8906 19.6502L48.1505 19.7881H51.6194H55.0882L55.3216 19.6661C55.4542 19.6024 55.6345 19.4486 55.73 19.3212L55.9051 19.0878V19.438V19.7881H57.8251C59.6762 19.7881 59.7505 19.7828 59.9786 19.6767C60.1059 19.613 60.2809 19.4645 60.3658 19.3478L60.5196 19.1356V19.4592V19.7881H62.4555C64.5772 19.7881 64.5984 19.7881 64.9113 19.4698C65.2561 19.1303 65.2402 19.3053 65.2402 15.1143V11.3H64.0998H62.9594V14.43V17.56H61.766H60.5726V14.43V11.3H59.4322H58.2919V14.43V17.56H57.125H55.9581V14.43V11.3H54.7912H53.6243V14.43V17.56H51.6088H49.5932V12.4141V7.26819H48.4529H47.3125L47.3231 13.1727Z" fill="#034EA2"/>
<path d="M85.3937 7.48039C82.2484 7.71912 79.4267 9.31063 78.1166 11.5706C77.7877 12.1382 77.6498 12.5573 77.6127 13.0825C77.5596 13.8836 77.8726 14.4671 78.5144 14.7536L78.7902 14.8809L82.2113 14.9074C85.3513 14.934 85.6483 14.9393 85.8021 15.0295C86.1204 15.1992 86.1575 15.3425 86.1787 16.5096L86.1999 17.56H81.1293H76.0586V18.674V19.7881L94.3204 19.7775L112.588 19.7616L112.805 19.6077C112.948 19.5122 113.076 19.3584 113.166 19.1727L113.304 18.8915L113.282 16.8332C113.261 14.9393 113.251 14.743 113.144 14.3663C113.086 14.1435 112.996 13.8836 112.948 13.7881C112.794 13.491 112.455 13.178 112.137 13.0348C111.511 12.7536 111.193 12.7271 107.952 12.6952C106.308 12.6793 104.966 12.6528 104.966 12.6316C104.966 12.5308 105.401 11.9685 105.729 11.6449C106.392 10.9923 107.342 10.4353 108.36 10.1117C109.097 9.87297 109.639 9.76687 110.519 9.6926L111.251 9.62894L111.288 8.56793C111.309 7.78809 111.304 7.49631 111.262 7.46448C111.177 7.41143 110.174 7.46978 109.474 7.56528C106.636 7.96846 104.138 9.49631 102.939 11.5706C102.611 12.1382 102.473 12.5573 102.436 13.0825C102.383 13.8836 102.696 14.4671 103.337 14.7536L103.613 14.8809L107.034 14.9074C110.174 14.934 110.471 14.9393 110.625 15.0295C110.943 15.1992 110.98 15.3425 111.002 16.5096L111.023 17.56H105.21H99.3964L99.3858 14.6263L99.3699 11.6873L99.2161 11.4698C99.1206 11.3265 98.9668 11.1992 98.7917 11.1143L98.5212 10.987L96.3996 10.9711C94.2939 10.9552 94.2727 10.9552 93.9067 11.0772C92.4852 11.5547 91.435 12.6316 90.9577 14.0852C90.8463 14.43 90.8357 14.5732 90.8144 16.0056L90.7932 17.56H89.637H88.4807L88.4595 16.1647C88.4382 14.9711 88.417 14.7165 88.3215 14.3663C88.2632 14.1435 88.173 13.8836 88.1253 13.7881C87.9715 13.491 87.632 13.178 87.3138 13.0348C86.6879 12.7536 86.3697 12.7271 83.1289 12.6952C81.4846 12.6793 80.1427 12.6528 80.1427 12.6316C80.1427 12.5308 80.5776 11.9685 80.9065 11.6449C81.5695 10.9923 82.5189 10.4353 83.5373 10.1117C84.2746 9.87297 84.8156 9.76687 85.696 9.6926L86.428 9.62894L86.4651 8.56793C86.4863 7.78809 86.481 7.49631 86.4386 7.46978C86.3644 7.42204 86.1098 7.42734 85.3937 7.48039ZM96.6807 13.1939L97.1157 13.2258V15.3902V17.56H95.0948H93.0793L93.0952 16.1117C93.1111 14.6793 93.1111 14.6687 93.249 14.3716C93.493 13.8517 94.0022 13.4008 94.5326 13.2364C94.7766 13.1568 95.9435 13.1356 96.6807 13.1939Z" fill="#034EA2"/>
<path d="M4.03115 8.16413C3.75534 8.22249 3.54317 8.34981 3.33101 8.58323C2.76348 9.20922 3.07642 10.2384 3.90385 10.4824C4.94875 10.7848 5.84513 9.72912 5.34655 8.77951C5.11317 8.33389 4.53503 8.06333 4.03115 8.16413Z" fill="#034EA2"/>
<path d="M40.9491 8.16413C40.6733 8.22249 40.4611 8.34981 40.249 8.58323C39.6814 9.20922 39.9944 10.2384 40.8218 10.4824C41.8667 10.7848 42.7631 9.72912 42.2645 8.77951C42.0311 8.33389 41.453 8.06333 40.9491 8.16413Z" fill="#034EA2"/>
<path d="M25.4092 14.4293V17.5593H22.8527H20.2908V16.1959C20.2908 15.4426 20.2696 14.2702 20.2431 13.5911L20.1954 12.3604H19.0656H17.9305V12.6097C17.9305 12.7529 17.9571 13.6177 17.9889 14.5407C18.1374 18.6681 17.7661 20.6097 16.6098 21.7503C16.0476 22.302 15.3793 22.5885 14.4193 22.6787L14.0586 22.7158V23.8299V24.9492L14.5519 24.9068C16.2439 24.7795 17.3683 24.2914 18.3443 23.2675C18.7792 22.806 19.0073 22.4718 19.3149 21.8405C19.5005 21.4585 19.8771 20.3551 19.9673 19.9307L19.9991 19.7874H23.4255C27.1649 19.7874 27.0323 19.798 27.3611 19.4691C27.7059 19.1296 27.69 19.3047 27.69 15.1137V11.2994H26.5496H25.4092V14.4293Z" fill="#034EA2"/>
<path d="M6.79057 15.2897C6.79057 17.8786 6.76936 19.2791 6.73223 19.5072C6.62085 20.1385 6.1647 20.6584 5.49639 20.9184C5.14632 21.051 4.36132 21.0987 3.91578 21.0086C3.25808 20.8812 2.71707 20.4834 2.43065 19.9051C2.30866 19.6558 2.30866 19.6399 2.29275 17.4648L2.27683 15.2791H1.13646H-0.00390625L0.0120059 17.5974C0.0385261 20.1704 0.0385261 20.1969 0.399201 20.9343C0.924302 22.0112 1.91616 22.7964 3.18382 23.1412C3.57632 23.2473 3.75136 23.2632 4.56288 23.2579C5.42213 23.2579 5.52821 23.2473 5.96314 23.1094C6.78527 22.86 7.33159 22.5417 7.88321 21.99C8.29162 21.5868 8.403 21.433 8.60986 21.0086C9.06601 20.0802 9.03949 20.4091 9.06071 15.6346L9.07662 11.4064H7.93094H6.79057V15.2897Z" fill="#034EA2"/>
<path d="M43.7085 15.2897C43.7085 17.8786 43.6873 19.2791 43.6502 19.5072C43.5388 20.1385 43.0827 20.6584 42.4144 20.9184C42.0643 21.051 41.2793 21.0987 40.8338 21.0086C40.176 20.8812 39.635 20.4834 39.3486 19.9051C39.2266 19.6558 39.2266 19.6399 39.2107 17.4648L39.1948 15.2791H38.0544H36.9141L36.93 17.5974C36.9565 20.1704 36.9565 20.1969 37.3172 20.9343C37.8423 22.0112 38.8341 22.7964 40.1018 23.1412C40.4943 23.2473 40.6693 23.2632 41.4808 23.2579C42.3401 23.2579 42.4462 23.2473 42.8811 23.1094C43.7032 22.86 44.2496 22.5417 44.8012 21.99C45.2096 21.5868 45.321 21.433 45.5278 21.0086C45.984 20.0802 45.9575 20.4091 45.9787 15.6346L45.9946 11.4064H44.8489H43.7085V15.2897Z" fill="#034EA2"/>
<path d="M69.2743 12.6097C69.2743 12.7529 69.3008 13.6177 69.3326 14.5407C69.4812 18.6681 69.1099 20.6097 67.9536 21.7503C67.3914 22.302 66.7231 22.5885 65.763 22.6787L65.4023 22.7158V23.8299V24.9492L65.8956 24.9068C67.5823 24.7795 68.6962 24.302 69.6721 23.2834C70.5844 22.3338 71.136 21.0712 71.449 19.241C71.6664 17.9413 71.6982 16.5248 71.5763 13.2728L71.5391 12.3604H70.4041H69.2743V12.6097Z" fill="#034EA2"/>
<path d="M22.6389 21.5063C22.3578 21.6071 22.1987 21.7185 22.0502 21.9201C21.6206 22.5037 21.7691 23.2782 22.3843 23.6443C22.6283 23.7928 22.7238 23.8193 23.0049 23.8193C23.7369 23.8193 24.2408 23.3419 24.2408 22.6522C24.2408 22.1801 24.0074 21.7981 23.583 21.5806C23.3178 21.4427 22.8935 21.4108 22.6389 21.5063Z" fill="#034EA2"/>
<path d="M25.465 21.5069C24.9929 21.6607 24.6641 22.1329 24.6641 22.6528C24.6641 23.5758 25.6241 24.117 26.4727 23.6713C27.3108 23.2363 27.2949 22.0162 26.4462 21.5811C26.181 21.4432 25.762 21.4114 25.465 21.5069Z" fill="#034EA2"/>
<path d="M1.11719 34.0049V39.7344H1.88627H2.65536V34.0049V28.2755H1.88627H1.11719V34.0049Z" fill="#EE1D25"/>
<path d="M39.5736 28.3918C39.547 28.4608 38.4756 31.0231 37.1867 34.0894C35.8979 37.1558 34.8477 39.6809 34.8477 39.7022C34.8477 39.7234 35.1606 39.7287 35.5478 39.7234L36.2426 39.7075L36.9056 38.1266L37.5686 36.551H40.1517H42.7348L43.3341 38.1213C43.6683 38.986 43.9653 39.7022 43.9971 39.7128C44.029 39.7287 44.4002 39.7287 44.8246 39.7234L45.5937 39.7075L43.3819 34.0046L41.1754 28.3016L40.3957 28.2857C39.6319 28.2751 39.6213 28.2751 39.5736 28.3918ZM41.2443 32.7313C41.7853 34.1478 42.2468 35.3361 42.2574 35.368C42.2786 35.421 41.8384 35.4369 40.1517 35.4369C38.465 35.4369 38.0248 35.421 38.046 35.368C38.1309 35.1558 40.0191 30.5934 40.1093 30.3812C40.1729 30.2433 40.226 30.1372 40.2366 30.1425C40.2419 30.1531 40.698 31.3202 41.2443 32.7313Z" fill="#EE1D25"/>
<path d="M62.75 28.9646V29.6543H63.4395H64.1291V28.9646V28.275H63.4395H62.75V28.9646Z" fill="#EE1D25"/>
<path d="M75.157 30.5044V31.4593H74.4144H73.6719V32.0428V32.6264H74.4144H75.157V35.1569C75.157 37.8359 75.1782 38.1118 75.4169 38.6423C75.5548 38.9606 75.9526 39.3797 76.2974 39.576C77.0028 39.9792 77.8727 40.0428 79.1244 39.7829L79.4002 39.7298V39.1516V38.5786L78.9918 38.69C77.8833 38.9871 77.024 38.7219 76.7217 38.0004C76.5785 37.6662 76.5361 36.9076 76.5361 34.7378V32.6264L77.7719 32.6158L79.0024 32.5999V32.0428V31.4858L77.7719 31.4699L76.5361 31.4593V30.5044V29.5495H75.8465H75.157V30.5044Z" fill="#EE1D25"/>
<path d="M8.25228 31.3259C7.56275 31.501 6.89444 31.989 6.47542 32.6203L6.28448 32.9068L6.26857 32.1853L6.25265 31.4585H5.56843H4.87891V35.5964V39.7344H5.56313H6.24735L6.27387 37.31C6.30569 34.6468 6.32691 34.4293 6.62924 33.814C6.82549 33.4161 7.23921 33.0129 7.69535 32.7795C8.1462 32.5514 8.75616 32.5089 9.27066 32.6681L9.59951 32.7742V32.0686C9.59951 31.4479 9.5889 31.3577 9.50934 31.3259C9.31309 31.2463 8.56522 31.2463 8.25228 31.3259Z" fill="#EE1D25"/>
<path d="M13.161 31.3258C12.2805 31.5167 11.7395 31.8032 11.2675 32.3231C10.9386 32.6838 10.7583 33.0287 10.7265 33.3735L10.6999 33.6334H11.4425H12.1851L12.2169 33.4425C12.2646 33.1454 12.4927 32.8112 12.7685 32.6308C13.1716 32.3655 13.4952 32.2913 14.2112 32.3178C14.9326 32.3443 15.2667 32.461 15.5637 32.7846C15.8077 33.0552 15.8608 33.2727 15.8608 33.9889V34.5831L15.6645 34.6202C15.0121 34.7316 13.893 34.9809 13.4156 35.1189C11.3417 35.713 10.5833 36.4186 10.5939 37.7449C10.5992 38.4876 10.8697 39.0234 11.4584 39.4637C11.9199 39.8032 12.323 39.9199 13.0496 39.9199C14.0097 39.9199 14.5931 39.6865 15.4365 38.965L15.8343 38.6308L15.8714 38.8483C15.8926 38.9703 15.9509 39.2197 15.9987 39.4L16.0835 39.7342H16.8261C17.5103 39.7342 17.5687 39.7289 17.5315 39.6441C17.5103 39.591 17.4467 39.3364 17.3936 39.0711C17.2982 38.6467 17.2876 38.3019 17.261 35.9411C17.2292 33.0075 17.2027 32.7263 16.9163 32.286C16.6193 31.8457 15.8661 31.4584 14.9909 31.3045C14.556 31.225 13.5694 31.2409 13.161 31.3258ZM15.8077 36.9491C15.6221 37.8881 14.8265 38.6945 13.8771 38.8854C12.8852 39.087 11.9994 38.4239 12.1161 37.5751C12.2328 36.7263 12.9754 36.2701 15.1288 35.7289L15.8343 35.5539L15.8502 36.0897C15.8608 36.3868 15.8396 36.774 15.8077 36.9491Z" fill="#EE1D25"/>
<path d="M22.9943 31.2994C22.1828 31.4744 21.3553 32.0421 20.9628 32.6893C20.9151 32.7742 20.8568 32.8378 20.8355 32.8378C20.8143 32.8378 20.7931 32.5248 20.7931 32.1482V31.4585H20.1036H19.4141V35.5964V39.7344H20.0983H20.7825L20.809 37.31C20.8302 35.0606 20.8409 34.8484 20.9469 34.4665C21.0901 33.9147 21.2864 33.5699 21.6471 33.2039C22.0873 32.7636 22.5381 32.5567 23.1216 32.5301C23.4929 32.5142 23.6308 32.5301 23.8748 32.6203C24.246 32.7636 24.5696 33.0341 24.7075 33.3312C24.8984 33.7238 24.9303 34.2702 24.9303 37.0606V39.7344H25.6198H26.3093V36.6681C26.3093 33.3683 26.2934 33.188 26.0229 32.5938C25.7736 32.0527 25.2114 31.5911 24.5219 31.3736C24.2195 31.2781 23.2966 31.2304 22.9943 31.2994Z" fill="#EE1D25"/>
<path d="M48.9829 31.3205C47.9698 31.5167 47.2962 31.9942 46.9196 32.7846C46.7817 33.0764 46.7499 33.2037 46.7393 33.6069C46.7128 34.2541 46.8401 34.6043 47.2538 35.0181C47.6569 35.4159 48.0812 35.6122 49.5398 36.0472C50.7863 36.4186 50.9348 36.477 51.2318 36.6998C51.4228 36.843 51.6031 37.1825 51.6084 37.4C51.6084 37.8085 51.2955 38.2754 50.834 38.5459C50.3407 38.8377 49.386 38.9014 48.6912 38.6945C48.304 38.5831 47.9221 38.2117 47.8691 37.904C47.8478 37.7873 47.8266 37.66 47.816 37.6228C47.8001 37.5751 47.6092 37.5592 47.0947 37.5592H46.3945L46.4264 37.8138C46.5377 38.7581 47.2909 39.5167 48.426 39.8244C48.6912 39.8987 48.9776 39.9199 49.6459 39.9199C50.3142 39.9199 50.6006 39.8987 50.8658 39.8244C51.4281 39.6759 51.8683 39.4266 52.2237 39.0711C52.7594 38.5406 52.9875 37.9783 52.9875 37.1772C52.9875 36.6255 52.8708 36.2541 52.5897 35.9305C52.2184 35.4955 51.8418 35.3311 50.1445 34.8589C48.8821 34.5088 48.6116 34.3974 48.3305 34.1268L48.0971 33.904L48.1183 33.5327C48.1343 33.2144 48.1608 33.1348 48.2987 32.9597C48.3889 32.8483 48.601 32.6838 48.7707 32.599C49.0731 32.4451 49.1049 32.4398 49.8262 32.4398C50.537 32.4398 50.59 32.4451 50.8764 32.5884C51.1894 32.7422 51.3962 32.9862 51.3962 33.2037C51.3962 33.3098 51.4175 33.3151 52.1176 33.3151H52.8389L52.8071 33.1136C52.648 32.2223 52.0646 31.6175 51.1363 31.3788C50.6643 31.2568 49.4762 31.225 48.9829 31.3205Z" fill="#EE1D25"/>
<path d="M56.8852 31.3205C55.8722 31.5167 55.1986 31.9942 54.822 32.7846C54.6841 33.0764 54.6522 33.2037 54.6416 33.6069C54.6151 34.2541 54.7424 34.6043 55.1561 35.0181C55.5592 35.4159 55.9836 35.6122 57.4422 36.0472C58.6886 36.4186 58.8371 36.477 59.1342 36.6998C59.3251 36.843 59.5054 37.1825 59.5108 37.4C59.5108 37.8085 59.1978 38.2754 58.7364 38.5459C58.2431 38.8377 57.2884 38.9014 56.5935 38.6945C56.2063 38.5831 55.8244 38.2117 55.7714 37.904C55.7502 37.7873 55.729 37.66 55.7184 37.6228C55.7024 37.5751 55.5115 37.5592 54.997 37.5592H54.2969L54.3287 37.8138C54.4401 38.7581 55.1933 39.5167 56.3283 39.8244C56.5935 39.8987 56.8799 39.9199 57.5483 39.9199C58.2166 39.9199 58.503 39.8987 58.7682 39.8244C59.3304 39.6759 59.7706 39.4266 60.126 39.0711C60.6617 38.5406 60.8898 37.9783 60.8898 37.1772C60.8898 36.6255 60.7731 36.2541 60.492 35.9305C60.1207 35.4955 59.7441 35.3311 58.0468 34.8589C56.7845 34.5088 56.514 34.3974 56.2329 34.1268L55.9995 33.904L56.0207 33.5327C56.0366 33.2144 56.0631 33.1348 56.201 32.9597C56.2912 32.8483 56.5034 32.6838 56.6731 32.599C56.9754 32.4451 57.0072 32.4398 57.7286 32.4398C58.4393 32.4398 58.4924 32.4451 58.7788 32.5884C59.0917 32.7422 59.2986 32.9862 59.2986 33.2037C59.2986 33.3098 59.3198 33.3151 60.0199 33.3151H60.7413L60.7095 33.1136C60.5503 32.2223 59.9669 31.6175 59.0387 31.3788C58.5666 31.2568 57.3785 31.225 56.8852 31.3205Z" fill="#EE1D25"/>
<path d="M68.4517 31.3205C67.4386 31.5167 66.765 31.9942 66.3884 32.7846C66.2505 33.0764 66.2187 33.2037 66.208 33.6069C66.1815 34.2541 66.3088 34.6043 66.7225 35.0181C67.1256 35.4159 67.55 35.6122 69.0086 36.0472C70.255 36.4186 70.4035 36.477 70.7006 36.6998C70.8915 36.843 71.0719 37.1825 71.0772 37.4C71.0772 37.8085 70.7642 38.2754 70.3028 38.5459C69.8095 38.8377 68.8548 38.9014 68.1599 38.6945C67.7727 38.5831 67.3908 38.2117 67.3378 37.904C67.3166 37.7873 67.2954 37.66 67.2848 37.6228C67.2689 37.5751 67.0779 37.5592 66.5634 37.5592H65.8633L65.8951 37.8138C66.0065 38.7581 66.7597 39.5167 67.8947 39.8244C68.1599 39.8987 68.4464 39.9199 69.1147 39.9199C69.783 39.9199 70.0694 39.8987 70.3346 39.8244C70.8968 39.6759 71.3371 39.4266 71.6924 39.0711C72.2281 38.5406 72.4562 37.9783 72.4562 37.1772C72.4562 36.6255 72.3395 36.2541 72.0584 35.9305C71.6871 35.4955 71.3105 35.3311 69.6132 34.8589C68.3509 34.5088 68.0804 34.3974 67.7993 34.1268L67.5659 33.904L67.5871 33.5327C67.603 33.2144 67.6295 33.1348 67.7674 32.9597C67.8576 32.8483 68.0698 32.6838 68.2395 32.599C68.5418 32.4451 68.5736 32.4398 69.295 32.4398C70.0057 32.4398 70.0588 32.4451 70.3452 32.5884C70.6581 32.7422 70.865 32.9862 70.865 33.2037C70.865 33.3098 70.8862 33.3151 71.5863 33.3151H72.3077L72.2759 33.1136C72.1168 32.2223 71.5333 31.6175 70.6051 31.3788C70.133 31.2568 68.9449 31.225 68.4517 31.3205Z" fill="#EE1D25"/>
<path d="M83.4384 31.3258C82.5579 31.5167 82.0169 31.8032 81.5448 32.3231C81.216 32.6838 81.0356 33.0287 81.0038 33.3735L80.9773 33.6334H81.7199H82.4624L82.4942 33.4425C82.542 33.1454 82.7701 32.8112 83.0459 32.6308C83.449 32.3655 83.7725 32.2913 84.4886 32.3178C85.2099 32.3443 85.5441 32.461 85.8411 32.7846C86.0851 33.0552 86.1381 33.2727 86.1381 33.9889V34.5831L85.9419 34.6202C85.2895 34.7316 84.1703 34.9809 83.693 35.1189C81.6191 35.713 80.8606 36.4186 80.8712 37.7449C80.8765 38.4876 81.147 39.0234 81.7358 39.4637C82.1972 39.8032 82.6003 39.9199 83.327 39.9199C84.287 39.9199 84.8705 39.6865 85.7138 38.965L86.1116 38.6308L86.1487 38.8483C86.1699 38.9703 86.2283 39.2197 86.276 39.4L86.3609 39.7342H87.1035C87.7877 39.7342 87.846 39.7289 87.8089 39.6441C87.7877 39.591 87.724 39.3364 87.671 39.0711C87.5755 38.6467 87.5649 38.3019 87.5384 35.9411C87.5066 33.0075 87.48 32.7263 87.1936 32.286C86.8966 31.8457 86.1434 31.4584 85.2683 31.3045C84.8333 31.225 83.8468 31.2409 83.4384 31.3258ZM86.0851 36.9491C85.8994 37.8881 85.1038 38.6945 84.1544 38.8854C83.1626 39.087 82.2768 38.4239 82.3935 37.5751C82.5102 36.7263 83.2527 36.2701 85.4062 35.7289L86.1116 35.5539L86.1275 36.0897C86.1381 36.3868 86.1169 36.774 86.0851 36.9491Z" fill="#EE1D25"/>
<path d="M93.2716 31.2994C92.4601 31.4744 91.6327 32.0421 91.2402 32.6893C91.1925 32.7742 91.1341 32.8378 91.1129 32.8378C91.0917 32.8378 91.0705 32.5248 91.0705 32.1482V31.4585H90.3809H89.6914V35.5964V39.7344H90.3756H91.0598L91.0864 37.31C91.1076 35.0606 91.1182 34.8484 91.2243 34.4665C91.3675 33.9147 91.5637 33.5699 91.9244 33.2039C92.3646 32.7636 92.8155 32.5567 93.3989 32.5301C93.7702 32.5142 93.9081 32.5301 94.1521 32.6203C94.5234 32.7636 94.8469 33.0341 94.9848 33.3312C95.1758 33.7238 95.2076 34.2702 95.2076 37.0606V39.7344H95.8971H96.5867V36.6681C96.5867 33.3683 96.5708 33.188 96.3002 32.5938C96.051 32.0527 95.4887 31.5911 94.7992 31.3736C94.4969 31.2781 93.574 31.2304 93.2716 31.2994Z" fill="#EE1D25"/>
<path d="M101.48 31.2947C100.17 31.5069 99.2155 32.255 98.7276 33.4645C98.1866 34.8067 98.2343 36.7855 98.839 38.0109C99.4754 39.2894 100.621 39.9473 102.234 39.9473C102.966 39.9473 103.512 39.8359 104.048 39.5759C104.795 39.2099 105.368 38.5043 105.432 37.873L105.458 37.613H104.764C104.005 37.613 104.058 37.5865 103.984 37.9632C103.867 38.552 102.923 38.9393 101.958 38.7908C101.411 38.7059 101.051 38.5255 100.664 38.1648C100.313 37.8306 100.091 37.4274 99.9422 36.8703C99.799 36.3345 99.8149 34.8173 99.9687 34.2497C100.181 33.4751 100.589 32.9605 101.247 32.6369L101.645 32.4406H102.361C103.045 32.4406 103.098 32.4459 103.39 32.5945C103.75 32.7695 103.979 33.0454 104.032 33.369L104.063 33.5812H104.764H105.458L105.427 33.2947C105.342 32.4725 104.493 31.6661 103.4 31.3743C103.034 31.2788 101.889 31.2311 101.48 31.2947Z" fill="#EE1D25"/>
<path d="M110.053 31.3007C109.103 31.4599 108.212 32.0222 107.65 32.8127C106.398 34.5633 106.52 37.322 107.92 38.8286C108.663 39.6297 109.703 39.9957 111.087 39.9373C112.18 39.8896 112.959 39.5607 113.574 38.8976C113.893 38.5527 114.094 38.1283 114.094 37.7994V37.6137H113.405H112.715V37.7676C112.715 38.001 112.413 38.4042 112.1 38.5793C111.511 38.9029 110.413 38.9029 109.703 38.5686C108.864 38.1761 108.26 37.1893 108.201 36.123L108.18 35.7835L111.172 35.7676L114.163 35.757L114.131 34.9188C114.089 33.6031 113.818 32.8392 113.166 32.1708C112.471 31.4599 111.204 31.1098 110.053 31.3007ZM111.612 32.5846C111.776 32.6588 112.015 32.8233 112.148 32.94C112.524 33.2901 112.816 33.9745 112.821 34.5209V34.749H110.535C108.387 34.749 108.255 34.7437 108.281 34.6535C108.297 34.6058 108.334 34.4572 108.366 34.3246C108.52 33.7304 109.087 32.9453 109.543 32.696C110.021 32.436 110.127 32.4148 110.726 32.4307C111.225 32.4413 111.352 32.4625 111.612 32.5846Z" fill="#EE1D25"/>
<path d="M62.75 35.5964V39.7344H63.4395H64.1291V35.5964V31.4585H63.4395H62.75V35.5964Z" fill="#EE1D25"/>
</g>
<defs>
<clipPath id="clip0_6736_15847">
<rect width="198" height="40" fill="white"/>
</clipPath>
</defs>
</svg>
